<?xml version="1.0" encoding="utf-8"?>
<!-- Generator: Adobe Illustrator 18.1.0, SVG Export Plug-In . SVG Version: 6.00 Build 0)  -->
<!DOCTYPE svg PUBLIC "-//W3C//DTD SVG 1.1//EN" "http://www.w3.org/Graphics/SVG/1.1/DTD/svg11.dtd">
<svg version="1.1" id="Layer_1" xmlns="http://www.w3.org/2000/svg" xmlns:xlink="http://www.w3.org/1999/xlink" x="0px" y="0px"
	 viewBox="0 0 1100 1100" enable-background="new 0 0 1100 1100" xml:space="preserve">
<g>
	
		<g id="path3773_63_" inkscape:export-ydpi="48.18" inkscape:export-xdpi="48.18" inkscape:export-filename="/home/rafael/workspace/logo-osi/3/png/logo396x412.png" inkscape:connector-curvature="0">
		<g>
			<path fill="#FFFFFF" d="M296.4,831.3L261,847.1c2.4,5.3,2.4,11.4,0,16.8c-4.6,10.4-16.8,15.1-27.2,10.5
				c-10.4-4.6-15.1-16.8-10.5-27.2s16.8-15.1,27.2-10.5l15.8-35.4c-15.4-6.8-32.9-6.8-48.3,0c-30,13.3-43.4,48.5-30.1,78.4
				c13.3,30,48.5,43.4,78.4,30.1C296.3,896.4,309.8,861.3,296.4,831.3z"/>
		</g>
	</g>
	
		<g id="path3773_53_" inkscape:export-ydpi="48.18" inkscape:export-xdpi="48.18" inkscape:export-filename="/home/rafael/workspace/logo-osi/3/png/logo396x412.png" inkscape:connector-curvature="0">
		<g>
			<path fill="#FFFFFF" d="M123.5,567c-10.6,4.1-22.6-1.2-26.6-11.9c-4.1-10.6,1.2-22.6,11.9-26.6s22.6,1.2,26.6,11.9l36.2-13.9
				c-6-15.7-18.5-28.1-34.2-34.2c-30.6-11.8-65,3.5-76.7,34.2s3.5,65,34.2,76.7s65-3.5,76.7-34.2l-36.2-13.9
				C133.3,560.6,129,564.9,123.5,567z"/>
		</g>
	</g>
	
		<g id="path3773_55_" inkscape:export-ydpi="48.18" inkscape:export-xdpi="48.18" inkscape:export-filename="/home/rafael/workspace/logo-osi/3/png/logo396x412.png" inkscape:connector-curvature="0">
		<g>
			<path fill="#FFFFFF" d="M1005.1,497.7c-30.6-11.8-65,3.5-76.7,34.2l36.2,13.9c2.1-5.5,6.4-9.8,11.9-11.9
				c10.6-4.1,22.6,1.2,26.6,11.9c4.1,10.6-1.2,22.6-11.9,26.6c-10.6,4.1-22.6-1.2-26.6-11.9l-36.2,13.9c6,15.7,18.5,28.1,34.2,34.2
				c30.6,11.8,65-3.5,76.7-34.2S1035.8,509.5,1005.1,497.7z"/>
		</g>
	</g>
	
		<g id="path3773_57_" inkscape:export-ydpi="48.18" inkscape:export-xdpi="48.18" inkscape:export-filename="/home/rafael/workspace/logo-osi/3/png/logo396x412.png" inkscape:connector-curvature="0">
		<g>
			<path fill="#FFFFFF" d="M909.3,834.5c-13.3-30-48.5-43.4-78.4-30.1l15.8,35.4c5.3-2.4,11.4-2.4,16.8,0
				c10.4,4.6,15.1,16.8,10.5,27.2s-16.8,15.1-27.2,10.5c-10.4-4.6-15.1-16.8-10.5-27.2l-35.4-15.8c-6.8,15.4-6.8,32.9,0,48.3
				c13.3,30,48.5,43.4,78.4,30.1C909.2,899.6,922.7,864.5,909.3,834.5z"/>
		</g>
	</g>
	
		<g id="path3773_59_" inkscape:export-ydpi="48.18" inkscape:export-xdpi="48.18" inkscape:export-filename="/home/rafael/workspace/logo-osi/3/png/logo396x412.png" inkscape:connector-curvature="0">
		<g>
			<path fill="#FFFFFF" d="M299.6,266.3c6.8-15.4,6.8-32.9,0-48.3c-13.3-30-48.5-43.4-78.4-30.1s-43.4,48.5-30.1,78.4
				c13.3,30,48.5,43.4,78.4,30.1L253.7,261c-5.3,2.4-11.4,2.4-16.8,0c-10.4-4.6-15.1-16.8-10.5-27.2c4.6-10.4,16.8-15.1,27.2-10.5
				c10.4,4.6,15.1,16.8,10.5,27.2L299.6,266.3z"/>
		</g>
	</g>
	
		<g id="path3773_61_" inkscape:export-ydpi="48.18" inkscape:export-xdpi="48.18" inkscape:export-filename="/home/rafael/workspace/logo-osi/3/png/logo396x412.png" inkscape:connector-curvature="0">
		<g>
			<path fill="#FFFFFF" d="M913.4,221.2c-13.3-30-48.5-43.4-78.4-30.1s-43.4,48.5-30.1,78.4l35.4-15.8c-2.4-5.3-2.4-11.4,0-16.8
				c4.6-10.4,16.8-15.1,27.2-10.5c10.4,4.6,15.1,16.8,10.5,27.2c-4.6,10.4-16.8,15.1-27.2,10.5L835,299.6c15.4,6.8,32.9,6.8,48.3,0
				C913.3,286.3,926.7,251.1,913.4,221.2z"/>
		</g>
	</g>
	
		<g id="path3773_49_" inkscape:export-ydpi="48.18" inkscape:export-xdpi="48.18" inkscape:export-filename="/home/rafael/workspace/logo-osi/3/png/logo396x412.png" inkscape:connector-curvature="0">
		<g>
			<path fill="#FFFFFF" d="M574,61.6c-30.6-11.8-65,3.5-76.7,34.2s3.5,65,34.2,76.7l13.9-36.2c-5.5-2.1-9.8-6.4-11.9-11.9
				c-4.1-10.6,1.2-22.6,11.9-26.6c10.6-4.1,22.6,1.2,26.6,11.9c4.1,10.6-1.2,22.6-11.9,26.6l13.9,36.2c15.7-6,28.1-18.5,34.2-34.2
				C619.9,107.7,604.6,73.3,574,61.6z"/>
		</g>
	</g>
	<g>
		<g>
			<g>
				<g>
					<g>
						<path fill="#FFFFFF" d="M922.3,360.2c56.3-23.1,71.2-37.9,33.1-32.7c-38.1,5.1-100.4,13.6-138.5,18.7s-64.7-21.8-59.1-59.8
							s14.7-100.2,20.3-138.2s-9.3-23.3-33.1,32.7c-23.8,56-69.1,155.5-100.6,221.1s-5,92.5,59.1,59.8S866,383.3,922.3,360.2z"/>
					</g>
					<g>
						<path fill="#FFFFFF" d="M180.5,740.4c-55.8,22.9-70.5,37.5-32.8,32.4s99.5-13.4,137.2-18.5s64.1,21.6,58.5,59.2
							c-5.6,37.7-14.6,99.3-20.2,137c-5.5,37.7,9.2,23.1,32.8-32.4c23.6-55.5,70.7-153.1,104.7-217s7.7-90.5-58.5-59.2
							S236.3,717.5,180.5,740.4z"/>
					</g>
					<g>
						<path fill="#FFFFFF" d="M740.9,923.7c23.3,56.7,38.1,71.7,32.9,33.3c-5.2-38.3-13.6-101-18.8-139.4s21.9-65.1,60.2-59.4
							c38.3,5.6,100.9,14.8,139.2,20.5c38.3,5.6,23.4-9.4-32.9-33.3c-56.4-24-154.9-70.2-219-102.8s-91.1-5.8-60.2,59.4
							C673.2,767.3,717.6,867.1,740.9,923.7z"/>
					</g>
					<g>
						<path fill="#FFFFFF" d="M360.7,181.8c-22.8-55.4-37.3-70.1-32.2-32.6s13.3,98.8,18.4,136.3c5.1,37.5-21.4,63.6-58.8,58.1
							c-37.4-5.5-98.6-14.5-136.1-20c-37.4-5.5-22.9,9.2,32.2,32.6s153.8,69.6,219.1,102.6s91.9,6.8,58.8-58.1
							S383.5,237.3,360.7,181.8z"/>
					</g>
					<g>
						<path fill="#FFFFFF" d="M422,947.8c-23.4,56-23.5,77-0.3,46.5c23.2-30.5,61.3-80.4,84.5-110.9c23.2-30.5,61-30.3,83.8,0.5
							s60.3,81.1,83.2,111.9c22.9,30.8,23,9.9,0.3-46.5c-22.7-56.3-58.7-158.5-80-227s-59-68.8-83.8-0.5
							C484.9,790.1,445.4,891.8,422,947.8z"/>
					</g>
					<g>
						<path fill="#FFFFFF" d="M677.7,154.7c23.2-55.5,23.3-76.2,0.3-46s-60.7,79.6-83.7,109.9s-60.4,30-83.1-0.5
							c-22.7-30.5-59.7-80.4-82.4-110.9s-22.8-9.8-0.3,46c22.5,55.8,60.4,158,84.2,227c23.8,69,61.2,69.3,83.1,0.5
							S654.6,210.2,677.7,154.7z"/>
					</g>
					<g>
						<path fill="#FFFFFF" d="M948.9,679.7c56.4,23.5,77.5,23.7,46.8,0.3s-80.9-61.7-111.6-85.1c-30.7-23.4-30.5-61.4,0.5-84.4
							c31-23,81.6-60.7,112.6-83.7c31-23,9.9-23.2-46.8-0.3s-158.8,60.7-227,84.1C655.2,534,655,572,722.9,595
							S892.5,656.2,948.9,679.7z"/>
					</g>
					<g>
						<path fill="#FFFFFF" d="M155.8,424c-55.2-23-75.8-23.2-45.7-0.3s79.1,60.3,109.2,83.2c30,22.9,29.8,60-0.5,82.5
							s-79.9,59.4-110.2,81.9s-9.7,22.6,45.7,0.3s157.6-58.4,227-80.1s69.6-58.9,0.5-82.5C312.7,485.2,211,447,155.8,424z"/>
					</g>
				</g>
			</g>
		</g>
	</g>
	
		<g id="path3773_51_" inkscape:export-ydpi="48.18" inkscape:export-xdpi="48.18" inkscape:export-filename="/home/rafael/workspace/logo-osi/3/png/logo396x412.png" inkscape:connector-curvature="0">
		<g>
			<path fill="#FFFFFF" d="M569,927.5l-13.9,36.2c5.5,2.1,9.8,6.4,11.9,11.9c4.1,10.6-1.2,22.6-11.9,26.6s-22.6-1.2-26.6-11.9
				c-4.1-10.6,1.2-22.6,11.9-26.6l-13.9-36.2c-15.7,6-28.1,18.5-34.2,34.2c-11.8,30.6,3.5,65,34.2,76.7c30.6,11.8,65-3.5,76.7-34.2
				C614.9,973.6,599.6,939.3,569,927.5z"/>
		</g>
	</g>
	<g>
		<path fill="#FFFFFF" d="M627.3,607c-0.9-4.8-1.6-8.3-2-10.3c-0.4-2-0.9-4-1.4-5.8c-0.3-0.9-0.5-1.8-0.7-2.5
			c-0.2-0.7-0.4-1.3-0.6-1.7c-1.9-4.8-4.5-8.6-7.8-11.2c-0.6-0.5-1.1-0.9-1.7-1.2l0.4-0.2l-1.8-4.7H596l3.8,9.9l0.9-0.3
			c-0.2,0.6-0.3,1.3-0.4,2.1c-0.4,2.3-0.4,4.8,0.1,7.4c0.3,2,0.9,4.1,1.7,6.2c1.8,4.8,4.4,8.6,7.7,11.3c0.2,0.2,0.4,0.3,0.7,0.5
			c1.8,1.3,3.8,2.4,6.1,3.4l15.3,6.2C629.7,614.8,628.2,611.9,627.3,607z"/>
		
			<rect x="602.7" y="571.7" transform="matrix(0.9309 -0.3653 0.3653 0.9309 -167.8749 261.7828)" fill="#FFFFFF" width="10.7" height="5.9"/>
		
			<rect x="599" y="573.2" transform="matrix(0.9388 -0.3445 0.3445 0.9388 -161.4921 243.4152)" fill="#FFFFFF" width="10.7" height="5.9"/>
		<path fill="#FFFFFF" d="M555.6,459.6l0.8,2.1l13.2,6c1.8,0.8,2.3,2.3,1.4,4.3l-5.7,12.6l16,41.7h15.7l-27.6-72
			c-0.7-1.9-2-2.5-3.9-1.7l-8,3.1C555.4,456.5,554.8,457.8,555.6,459.6z"/>
		<path fill="#FFFFFF" d="M565.6,474.5c0.9-2,0.5-3.5-1.4-4.3l-28.4-12.9c-1.8-0.8-3.2-0.2-4.1,1.8l-58.1,127.5
			c-0.3,0.6-0.4,1.2-0.4,1.8c0,0.1,0,0.2,0,0.3c0,0.1,0,0.1,0,0.1c0.1,0.5,0.2,0.8,0.4,1.2l7.7,24.8l24.2-10.6
			c0.1-0.1,0.3-0.1,0.4-0.2c0.3-0.2,0.5-0.4,0.8-0.7c0.3-0.3,0.5-0.7,0.7-1.2L565.6,474.5z"/>
		<g>
			<g>
				<path fill="#FFFFFF" d="M616.9,530.8H609v6.5h-1.8v-6.5h-11.2v11.3h-1.8v-11.3h-11.2v6.5h-1.8v-6.5h-25.6v6.4h-1.8v-6.4h-9.3
					l-15.7,34.5h88.1c2,0,3.1-1,3.1-3v-28.4C620,531.8,619,530.8,616.9,530.8z M570.2,542.1h-1.8v-11.3h1.8V542.1z"/>
			</g>
		</g>
		<g>
			<g>
				<path fill="#FFFFFF" d="M483.1,530.8v6.5h-1.8v-6.5h-0.6h-6.8c-2,0-3.1,1-3.1,3v28.4c0,2,1,3,3.1,3h4.4l15.7-34.5H483.1z"/>
			</g>
		</g>
	</g>
</g>
</svg>
